<svg width="143" height="56" viewBox="0 0 143 56" fill="none" xmlns="http://www.w3.org/2000/svg">
<g clip-path="url(#clip0_3450_60486)">
<path d="M46.7515 33.1677H44.215C43.4807 33.1677 42.8799 32.5669 42.8799 31.8325V15.7123H37.8403C35.2703 15.7123 33.1677 17.8149 33.1677 20.3848V34.3357C33.1677 36.9057 35.2703 39.0084 37.8403 39.0084H56.4637V6H46.7515V33.1677ZM24.6234 15.7124H6.33375V21.5197H18.2488C18.9831 21.5197 19.5838 22.1206 19.5838 22.8548V33.1678H17.0473C16.313 33.1678 15.7123 32.5671 15.7123 31.8327V24.4234H10.6726C8.10266 24.4234 6 26.526 6 29.096V34.3026C6 36.8725 8.10266 38.9751 10.6726 38.9751H29.2961V20.3516C29.2961 17.8151 27.1935 15.7124 24.6234 15.7124ZM71.416 33.1678H73.9526V15.7124H83.6648V44.0481C83.6648 46.6182 81.5621 48.7208 78.9922 48.7208H60.7024V41.9122H73.9526V39.0085H65.0413C62.4714 39.0085 60.3687 36.9059 60.3687 34.3359V15.7124H70.081V31.8327C70.081 32.5671 70.6818 33.1678 71.416 33.1678ZM106.16 15.7124H87.5364V34.336C87.5364 36.9059 89.639 39.0085 92.2089 39.0085H110.499V33.2011H98.5836C97.8494 33.2011 97.2487 32.6003 97.2487 31.8661V21.5197H99.7851C100.519 21.5197 101.12 22.1206 101.12 22.8548V30.2641H106.16C108.73 30.2641 110.832 28.1615 110.832 25.5916V20.385C110.832 17.8151 108.73 15.7124 106.16 15.7124ZM114.704 15.7124H133.327C135.931 15.7124 138 17.8151 138 20.3516V38.9751H128.288V22.8548C128.288 22.1206 127.687 21.5197 126.953 21.5197H124.416V39.0085H114.704V15.7124Z" fill="#57BC60"/>
</g>
<defs>
<clipPath id="clip0_3450_60486">
<rect width="131" height="44" fill="white" transform="translate(6 6)"/>
</clipPath>
</defs>
</svg>
