<svg width="143" height="56" viewBox="0 0 143 56" fill="none" xmlns="http://www.w3.org/2000/svg">
<g clip-path="url(#clip0_3347_48834)">
<path d="M33.9636 35.5845H36.7479C36.8639 35.5845 36.9654 35.4851 36.9654 35.3714V29.0213H41.9539C42.0409 29.0213 42.128 28.9645 42.157 28.8792L43.0416 26.4926C43.0851 26.379 43.0271 26.2653 42.911 26.2227C42.882 26.2085 42.8675 26.2085 42.8385 26.2085H36.9654V22.2308H44.4627C44.5497 22.2308 44.6367 22.174 44.6657 22.0887L45.5648 19.7021C45.6083 19.5884 45.5503 19.4748 45.4343 19.4322C45.4053 19.418 45.3908 19.418 45.3618 19.418H33.9636C33.8476 19.418 33.7461 19.5174 33.7461 19.6311V35.3714C33.7461 35.4993 33.8476 35.5845 33.9636 35.5845Z" fill="#1F375B"/>
<path d="M51.8009 19.56L45.9568 35.3004C45.9133 35.4141 45.9713 35.5277 46.0873 35.5703C46.1163 35.5845 46.1308 35.5845 46.1598 35.5845H49.0601C49.1472 35.5845 49.2342 35.5277 49.2632 35.4425L50.2058 32.7291H56.0789L57.007 35.4425C57.036 35.5277 57.123 35.5845 57.21 35.5845H60.0958C60.2118 35.5845 60.3133 35.4851 60.3133 35.3714C60.3133 35.343 60.3133 35.3288 60.2988 35.3004L54.4402 19.56C54.4112 19.4748 54.3242 19.418 54.2372 19.418H52.0185C51.9169 19.418 51.8444 19.4748 51.8009 19.56ZM51.1194 30.0726L53.2076 24.1912L55.2233 30.0726H51.1194Z" fill="#1F375B"/>
<path d="M73.4943 29.3196L67.0122 19.5174C66.9687 19.4606 66.8962 19.418 66.8236 19.418H64.2859C64.1699 19.418 64.0684 19.5174 64.0684 19.6311V35.3714C64.0684 35.4851 64.1699 35.5845 64.2859 35.5845H67.0702C67.1862 35.5845 67.2877 35.4851 67.2877 35.3714V25.6545L73.7699 35.4851C73.8134 35.5419 73.8859 35.5845 73.9584 35.5845H76.4961C76.6122 35.5845 76.7137 35.4851 76.7137 35.3714V19.6311C76.7137 19.5174 76.6122 19.418 76.4961 19.418H73.7119C73.5958 19.418 73.4943 19.5174 73.4943 19.6311V29.3196Z" fill="#1F375B"/>
<path d="M107.791 29.9305C107.791 31.7915 106.66 32.9138 104.92 32.9138C103.18 32.9138 102.063 31.8057 102.063 29.9305V19.6311C102.063 19.5174 101.962 19.418 101.846 19.418H99.0613C98.9453 19.418 98.8438 19.5174 98.8438 19.6311V30.0441C98.8438 33.482 101.541 35.7266 104.92 35.7266C108.299 35.7266 110.996 33.482 110.996 30.0441V19.6311C110.996 19.5174 110.895 19.418 110.778 19.418H108.023C107.907 19.418 107.806 19.5174 107.806 19.6311L107.791 29.9305Z" fill="#1F375B"/>
<path d="M127.135 22.0887L128.02 19.7021C128.064 19.5884 128.006 19.4748 127.89 19.4322C127.861 19.418 127.846 19.418 127.817 19.418H116.433C116.317 19.418 116.216 19.5174 116.216 19.6311V35.3714C116.216 35.4851 116.317 35.5845 116.433 35.5845H127.817C127.933 35.5845 128.035 35.4851 128.035 35.3714C128.035 35.343 128.035 35.3288 128.02 35.3004L127.135 32.9138C127.106 32.8285 127.019 32.7717 126.932 32.7717H119.435V28.8366H125.468C125.584 28.8366 125.685 28.7372 125.685 28.6235V26.2369C125.685 26.1233 125.584 26.0238 125.468 26.0238H119.435V22.2308H126.932C127.019 22.2308 127.106 22.174 127.135 22.0887Z" fill="#1F375B"/>
<path d="M141.913 32.7717H135.097V19.6311C135.097 19.5174 134.996 19.418 134.88 19.418C134.88 19.418 134.88 19.418 134.865 19.418H132.081C131.965 19.418 131.863 19.5174 131.863 19.6311V35.3714C131.863 35.4851 131.965 35.5845 132.081 35.5845H142.783C142.899 35.5845 143 35.4851 143 35.3714C143 35.343 143 35.3288 142.986 35.3004L142.101 32.9138C142.087 32.8285 142 32.7717 141.913 32.7717Z" fill="#1F375B"/>
<path d="M92.5063 20.9664C91.4187 19.901 89.867 19.418 88.1413 19.418H81.5867C81.4707 19.418 81.3691 19.5174 81.3691 19.6311C81.3691 19.6453 81.3691 19.6595 81.3691 19.6737L81.8477 22.0603C81.8767 22.1597 81.9492 22.2308 82.0507 22.2308H87.8078C88.9244 22.2308 89.664 22.5717 90.2151 23.2252C90.8241 23.9497 90.9111 24.9726 90.9111 27.4302C90.9111 29.8879 90.8241 31.0386 90.2151 31.7631C89.664 32.4166 88.9099 32.7575 87.8078 32.7575H85.4151V24.3617C85.4151 24.2481 85.3136 24.1486 85.1975 24.1486H82.4133C82.2972 24.1486 82.1957 24.2481 82.1957 24.3617V35.3856C82.1957 35.4993 82.2972 35.5987 82.4133 35.5987H88.1558C89.867 35.5987 91.4332 35.1157 92.5208 34.0503C94.377 32.2319 94.1885 29.8737 94.1885 27.4444C94.174 25.001 94.3625 22.7706 92.5063 20.9664Z" fill="#1F375B"/>
<path d="M10.5578 19.134C11.0509 18.0969 11.6164 17.1167 12.269 16.2075C12.53 15.8382 12.8055 15.4972 13.0811 15.1705C13.1246 15.0994 13.0811 15 12.9941 15C12.9216 15 12.8491 15 12.7765 15C9.86175 15 7.04846 15.483 4.43819 16.3638C3.08955 16.8184 1.78441 17.3866 0.537283 18.0543C0.189247 18.239 -0.0137737 18.5941 0.000727783 18.9777C0.0297308 20.3983 0.189247 21.7763 0.464776 23.1259C0.711301 24.3902 1.05934 25.6262 1.49438 26.8195C2.01644 28.2543 2.669 29.6323 3.45208 30.9251C4.87323 33.3259 6.68592 35.471 8.81764 37.2752C9.18018 37.5877 9.55721 37.8861 9.93425 38.1702C10.0213 38.227 10.1373 38.1418 10.0938 38.0565C9.93425 37.673 9.78924 37.2752 9.65872 36.8774C9.00616 34.9596 8.60012 32.8997 8.4696 30.7688C8.4696 30.6694 8.4261 30.5841 8.38259 30.5131C7.84604 29.7886 7.36749 29.0499 6.93244 28.2543C7.32398 28.0412 7.74453 27.8565 8.16507 27.7003C8.35359 27.6292 8.4696 27.4588 8.4841 27.2599C8.58561 25.8393 8.80314 24.4329 9.15117 23.0975C9.16567 23.0265 9.10767 22.9554 9.03516 22.9696C7.71552 23.268 6.43939 23.7084 5.26477 24.2908C4.93124 23.1827 4.68471 22.0462 4.5397 20.8813C6.30888 20.1426 8.20858 19.6454 10.1808 19.4039C10.3258 19.4039 10.4708 19.2902 10.5578 19.134Z" fill="#1493FF"/>
<path d="M25.0156 18.055C23.7684 17.3874 22.4778 16.8333 21.1147 16.3645C19.302 15.7536 17.4168 15.3417 15.4446 15.1428C15.2851 15.1286 15.1401 15.1854 15.024 15.2848C13.9654 16.3503 13.0228 17.6431 12.2543 19.1205C12.2253 19.1915 12.2688 19.2626 12.3413 19.2626C12.4863 19.2626 12.6168 19.2626 12.7618 19.2626C15.6911 19.2626 18.4899 19.845 21.0422 20.8963C20.8971 22.0612 20.6506 23.2119 20.3171 24.3057C19.8965 25.6837 19.331 27.0049 18.6349 28.255C17.1848 30.869 15.1691 33.1561 12.7618 34.9319C11.9207 34.3068 11.1376 33.6392 10.4126 32.9004C10.3401 32.8294 10.224 32.8862 10.2385 32.9857C10.4271 34.0653 10.6736 35.1166 10.9926 36.111C11.4422 37.5032 12.0222 38.7818 12.7183 39.9467C12.7473 39.9893 12.8053 40.0177 12.8633 39.9893C14.241 39.1937 15.5461 38.2846 16.7497 37.2617C18.8669 35.4575 20.6941 33.3124 22.1153 30.9116C22.8839 29.6046 23.5364 28.2408 24.073 26.806C24.508 25.6127 24.8561 24.3768 25.1026 23.1124C25.3636 21.7628 25.5231 20.3706 25.5666 18.9642C25.5666 18.5807 25.3636 18.2255 25.0156 18.055Z" fill="#1493FF"/>
</g>
<defs>
<clipPath id="clip0_3347_48834">
<rect width="143" height="25" fill="white" transform="translate(0 15)"/>
</clipPath>
</defs>
</svg>
