<svg width="143" height="56" viewBox="0 0 143 56" fill="none" xmlns="http://www.w3.org/2000/svg">
<path fill-rule="evenodd" clip-rule="evenodd" d="M12.0579 24.2729C13.6587 24.2729 15.4686 24.9471 16.426 26.2811H16.5456V24.6176H20.8837V38.3008C20.8837 42.8419 17.1442 45 13.4342 45C9.82957 45 6.31405 42.9469 6.28403 39.0952H10.5921C10.6969 40.8184 11.9383 41.6129 13.3746 41.6129C14.8105 41.6129 16.2764 40.7286 16.2764 38.5404V36.4425H16.1568C15.1846 37.6112 13.5538 38.2406 12.0579 38.2406C8.42326 38.2406 6 34.7637 6 31.2119C6 27.66 8.42326 24.2729 12.0579 24.2729ZM55.0782 24.6029V32.3511C55.0782 33.5051 55.9756 34.4342 57.0974 34.4342C58.2192 34.4342 59.117 33.5051 59.117 32.3511V24.6029H63.7238V32.2761C63.7238 36.2027 61.0314 38.6006 57.0974 38.6006C53.2382 38.6006 50.4709 36.2925 50.4709 32.2761V24.6029H55.0782ZM129.72 24.2429C133.729 24.2429 136.915 27.2404 136.915 31.4368C136.915 31.8278 136.879 32.1585 136.849 32.3735L136.84 32.4409H127.222C127.386 34.1941 128.478 35.1834 129.81 35.1834C130.552 35.1834 131.308 34.8832 131.961 34.1649L132.053 34.0595H136.496C135.344 37.1468 132.532 38.5853 129.72 38.5853C126.115 38.5853 122.525 36.2028 122.525 31.4368C122.525 27.2404 125.711 24.2429 129.72 24.2429ZM30.3523 24.123C34.5259 24.123 37.9362 27.0756 37.9362 31.3317C37.9362 35.5882 34.5259 38.5404 30.3523 38.5404C26.194 38.5404 22.8285 35.6179 22.8285 31.3317C22.8285 27.0455 26.194 24.123 30.3523 24.123ZM96.6474 16.3299V38.2406H92.3094V36.4271H92.1898C91.0079 37.7613 89.3624 38.5104 87.7021 38.5104C83.9626 38.5104 81.4792 35.0936 81.4792 31.3919C81.4792 27.6901 83.9626 24.2878 87.7021 24.2878C89.138 24.2878 90.8583 24.8273 91.9205 26.1164H92.0401V16.3299H96.6474ZM46.3278 15.9403C47.1803 15.9403 48.0629 16.0449 48.8259 16.2249V19.9566C48.4818 19.8669 48.2126 19.8215 47.9133 19.8215C46.6719 19.8215 45.5948 20.3315 45.5948 21.9796V24.6176H48.4069V28.3495H45.5948V38.2406H40.9875V28.3495H38.9832V24.6176H40.9875V21.0209C40.9875 17.6185 43.396 15.9403 46.3278 15.9403ZM74.6288 24.2429C77.1717 24.2429 79.5349 26.0414 79.5349 29.5484V38.2406H74.9281V30.5076C74.9281 29.1435 74.0155 28.2296 72.8637 28.2296C71.7118 28.2296 70.7992 29.1736 70.7992 30.5076V38.2406H66.1924V24.6176H70.53V26.326H70.6496C71.6818 24.9175 73.3273 24.2429 74.6288 24.2429ZM115.824 24.2429C118.262 24.2429 120.581 26.0715 120.581 29.5035V38.2406H115.974V30.3429C115.974 29.0685 115.136 28.2296 114.089 28.2296C113.027 28.2296 112.189 29.0837 112.189 30.3429V38.2406H107.582V30.3429C107.582 29.0685 106.744 28.2296 105.697 28.2296C104.635 28.2296 103.797 29.0837 103.797 30.3429V38.2406H99.1898V24.6176H103.528V26.326H103.648C104.56 24.9471 106.101 24.2581 107.567 24.2581C108.988 24.2581 110.469 25.0072 111.366 26.611H111.486C112.623 24.9771 114.253 24.2429 115.824 24.2429ZM89.0335 28.3343C87.3433 28.3343 85.9669 29.7131 85.9669 31.4066C85.9669 33.1002 87.3433 34.4939 89.0335 34.4939C90.7238 34.4939 92.0997 33.1002 92.0997 31.4066C92.0997 29.7131 90.7238 28.3343 89.0335 28.3343ZM30.3823 28.2296C28.722 28.2296 27.3757 29.6081 27.3757 31.3317C27.3757 33.0554 28.722 34.4342 30.3823 34.4342C32.0427 34.4342 33.3889 33.0554 33.3889 31.3317C33.3889 29.6081 32.0427 28.2296 30.3823 28.2296ZM13.4194 28.3343C11.8039 28.3343 10.4877 29.6381 10.4877 31.2567C10.4877 32.8754 11.8039 34.1941 13.4194 34.1941C15.035 34.1941 16.3364 32.8754 16.3364 31.2567C16.3364 29.6381 15.035 28.3343 13.4194 28.3343ZM129.75 27.63C128.538 27.63 127.506 28.4091 127.162 29.9681H132.263C131.978 28.4393 130.962 27.63 129.75 27.63ZM134.653 20.0237L135.503 22.5256L136.346 20.0237H136.915V22.9829H136.532V21.2361C136.532 21.1759 136.535 21.076 136.537 20.9363C136.54 20.7965 136.541 20.6466 136.541 20.4869L135.697 22.9829H135.301L134.45 20.4869V20.5776C134.45 20.6502 134.452 20.7604 134.456 20.9089C134.46 21.0575 134.462 21.1662 134.462 21.2361V22.9829H134.079V20.0237H134.653ZM133.723 20.0237V20.3764H132.727V22.9829H132.323V20.3764H131.327V20.0237H133.723ZM71.4573 12.9756C76.6368 12.9756 81.1555 15.7964 83.5756 19.9863H59.3396C61.7596 15.7964 66.2782 12.9756 71.4573 12.9756ZM85.3771 6.25274C86.2749 5.35321 87.7436 5.35321 88.6409 6.25274C89.5388 7.1518 89.5388 8.62325 88.6409 9.52279L85.1624 13.008C84.265 13.907 82.7965 13.907 81.8985 13.008L81.8194 12.9246C81.0021 12.0198 81.0284 10.6098 81.8985 9.73795L85.3771 6.25274ZM54.3698 6.17344C55.273 5.35404 56.6803 5.38046 57.5505 6.25274L61.0295 9.73795C61.9269 10.637 61.9269 12.1085 61.0295 13.008C60.1317 13.907 58.663 13.907 57.7657 13.008L54.2866 9.52279C53.3893 8.62325 53.3893 7.1518 54.2866 6.25274L54.3698 6.17344ZM71.4283 0L71.528 0.00214729C72.7517 0.0549316 73.7361 1.07413 73.7361 2.31267V7.24111C73.7361 8.51313 72.6978 9.55379 71.4283 9.55379C70.1591 9.55379 69.1204 8.51313 69.1204 7.24111V2.31267C69.1204 1.04066 70.1591 0 71.4283 0Z" fill="#02A95C"/>
</svg>
