<svg width="143" height="56" viewBox="0 0 143 56" fill="none" xmlns="http://www.w3.org/2000/svg">
<g clip-path="url(#clip0_3450_60561)">
<path d="M142.999 49H-0.000976562V6H142.999V49Z" fill="black"/>
<path d="M50.6988 14.2188C47.3348 14.2188 45.415 15.622 45.415 18.0879C45.415 19.6166 46.0356 20.7233 47.8053 21.2654L51.0343 22.2381C51.4654 22.3695 51.8101 22.6159 51.8101 23.0595C51.8101 23.586 51.369 24.0322 50.6988 24.0322C50.2686 24.0322 49.9943 23.8731 49.8182 23.6431C49.6429 23.3967 49.5666 23.0638 49.5666 22.7352H45.2053C45.2053 25.8254 47.7566 26.7125 50.5311 26.7125C53.7836 26.7125 56.0666 25.4934 56.0666 22.5839C56.0666 21.1538 55.4409 20.0956 53.9908 19.4713C52.8266 18.962 51.2197 18.6318 50.3424 18.3689C49.8635 18.2211 49.5876 18.0395 49.5876 17.6124C49.5876 17.2501 49.9021 16.9207 50.6359 16.9207C51.2256 16.9207 51.6265 17.1749 51.6424 17.915H55.7311C55.7311 15.1534 53.5689 14.2188 50.6988 14.2188ZM113.56 14.3052V40.6544H115.007V14.3052H113.56ZM128.133 14.3917C127.282 14.3917 126.581 15.1015 126.581 15.9696C126.581 16.8463 127.282 17.5475 128.133 17.5475C128.979 17.5475 129.663 16.8463 129.663 15.9696C129.663 15.1015 128.979 14.3917 128.133 14.3917ZM13.5859 14.543L16.0811 26.4099H21.0295L22.0988 18.7148H22.1198L23.1892 26.4099H28.1376L30.6327 14.543H26.544L25.5795 22.0003H25.5376L24.4682 14.543H19.7505L18.6811 22.0003H18.6601L17.6746 14.543H13.5859ZM33.4214 14.543V26.4099H42.3117V23.3188H37.7827V21.9787H41.8295V18.8877H37.7827V17.634H42.165V14.543H33.4214ZM58.6666 14.543V17.7204H61.5182V26.4099H66.0682V17.7204H68.9198V14.543H58.6666ZM72.0021 14.543V26.4099H80.9134V23.3188H76.3843V21.9787H80.4311V18.8877H76.3843V17.634H80.7666V14.543H72.0021ZM84.2892 14.543V26.4099H88.7553V22.1732H89.2795C90.0125 22.1732 90.2952 22.4032 90.3908 22.9946C90.5501 24.014 90.686 25.5219 90.9569 26.4099H95.423C94.8972 24.6175 94.9441 22.9324 94.6892 21.9138C94.4661 21.0095 93.8546 20.4993 92.7392 20.4008V20.3791C94.461 19.9512 95.0247 18.9119 95.0246 17.5475C95.0246 15.3116 93.5754 14.543 91.1037 14.543H84.2892ZM98.6101 14.543V26.4099H102.3V19.1687H102.342L104.775 26.4099H110.247V14.543H106.536V21.7193H106.515L104.083 14.543H98.6101ZM123.876 14.543V40.6112H125.323V14.543H123.876ZM128.133 14.5862C128.877 14.5862 129.412 15.2018 129.412 15.9696C129.412 16.746 128.877 17.3314 128.133 17.3314C127.384 17.3314 126.833 16.746 126.833 15.9696C126.833 15.2018 127.384 14.5862 128.133 14.5862ZM127.567 15.0834V16.8558H127.776V16.0344H128.154L128.636 16.8558H128.888L128.384 16.0344C128.688 16.0258 128.909 15.9056 128.909 15.5589C128.909 15.2675 128.754 15.0834 128.3 15.0834H127.567ZM127.776 15.2347H128.259C128.469 15.2347 128.678 15.2623 128.678 15.5373C128.678 15.897 128.333 15.8615 128.091 15.8615H127.776V15.2347ZM88.7553 17.2449H89.1746C90.0679 17.2449 90.6424 17.4118 90.6424 18.2825C90.6424 19.1704 90.01 19.4929 89.1327 19.4929H88.7553V17.2449ZM89.2166 28.4201C85.2461 28.4201 83.2617 30.969 83.2617 34.6669C83.2617 38.3658 85.2461 40.9138 89.2166 40.9138C93.187 40.9138 95.1505 38.3658 95.1505 34.6669C95.1505 30.969 93.187 28.4201 89.2166 28.4201ZM45.0376 28.7227V36.6123C45.0376 39.4725 47.0337 40.9138 50.5101 40.9138C53.9857 40.9138 55.9827 39.4725 55.9827 36.6123V28.7227H51.4117V36.4178C51.4117 37.3542 50.9882 37.7147 50.5101 37.7147C50.0321 37.7147 49.6085 37.3542 49.6085 36.4178V28.7227H45.0376ZM59.7569 28.7227V40.5896H63.4682V33.37H63.4892L65.9214 40.5896H71.394V28.7227H67.7037V35.9206H67.6617L65.2295 28.7227H59.7569ZM75.2521 28.7227V40.5896H79.823V28.7227H75.2521ZM98.6101 28.7227V40.5896H102.3V33.37H102.342L104.775 40.5896H110.247V28.7227H106.536V35.9206H106.515L104.083 28.7227H98.6101ZM89.2166 31.5111C89.9505 31.5111 90.4327 31.9884 90.4327 34.6669C90.4327 37.4121 89.9177 37.8228 89.2166 37.8228C88.5154 37.8228 87.9795 37.4121 87.9795 34.6669C87.9795 31.9884 88.4835 31.5111 89.2166 31.5111Z" fill="#FFDE38"/>
</g>
<defs>
<clipPath id="clip0_3450_60561">
<rect width="143" height="43" fill="white" transform="translate(0 6)"/>
</clipPath>
</defs>
</svg>
